<?xml version="1.0" encoding="UTF-8"?>
<svg id="Layer_1" xmlns="http://www.w3.org/2000/svg" version="1.1" viewBox="0 0 200 200">
  <!-- Generator: Adobe Illustrator 29.5.1, SVG Export Plug-In . SVG Version: 2.1.0 Build 141)  -->
  <defs>
    <style>
      .st0 {
        fill: #2e3165;
      }

      .st1 {
        fill: #3ab54a;
      }

      .st2 {
        fill: #558eca;
      }

      .st3 {
        stroke-width: .96px;
      }

      .st3, .st4 {
        fill: #262262;
        stroke: #262262;
      }

      .st3, .st4, .st5 {
        stroke-miterlimit: 10;
      }

      .st6 {
        fill: #2d3265;
      }

      .st7, .st5 {
        fill: #2e3192;
      }

      .st4 {
        stroke-width: .98px;
      }

      .st8 {
        fill: #3bb54a;
      }

      .st9 {
        fill: #389049;
      }

      .st10 {
        fill: #39b54a;
      }

      .st5 {
        stroke: #2e3192;
        stroke-width: 1.52px;
      }

      .st11 {
        fill: #558ecb;
      }

      .st12 {
        fill: #379048;
      }
    </style>
  </defs>
  <g>
    <g>
      <g>
        <path class="st1" d="M144.05,3.19c-13.94.32-27.55,5.41-38.41,14.14-11.13,8.95-18.77,21.76-21.71,35.72-.96,4.57-1.41,9.23-1.35,13.88.65.16,1.3.34,1.94.52-.21-10.75,2.42-21.54,7.6-30.98,6.56-11.97,17.22-21.34,29.8-26.59,7.01-2.93,14.53-4.56,22.13-4.73,1.26-.03,1.26-1.98,0-1.95Z"/>
        <path class="st1" d="M143.06,4.15c-1.96,24.63-13.1,48.17-30.27,65.25-2.65,2.63-5.44,5.1-8.36,7.4.57.38,1.13.76,1.69,1.15,6.91-5.53,13.1-12.01,18.41-19.21,7.42-10.07,13.1-21.54,16.63-33.67,1.98-6.81,3.26-13.83,3.82-20.91.1-1.28-1.83-1.28-1.93,0Z"/>
        <path class="st10" d="M144.05,3.19c-9.52.41-17.15,2.57-27.16,7.75-10.01,5.18-11.07,4.33-19.54,16.84s-10.8,14.04-11.89,25.25c-.52,5.33-1.19,10.22-1.46,14.28,7.5,2.08,14.61,5.58,21.12,9.96,6.11-5.47,10.35-10.69,19.39-20.19,9.31-13.43,11.66-20.09,15.73-30.68,1.09-11.22,4.06-16.29,3.81-23.21Z"/>
      </g>
      <path class="st9" d="M131.6,26.56c-2.92,10.77-7.62,20.94-13.76,29.88-4.77,6.95-10.4,13.13-16.72,18.3,2.01,1.19,3.97,2.47,5.87,3.83,2.34-2.01,4.61-4.13,6.78-6.36,17.96-18.44,29.7-43.76,32.01-70.31-7.67.32-15.23,2.08-22.32,5.13-3.1,1.34-6.09,2.92-8.94,4.72,6.14-2.83,12.76-4.43,19.46-4.6h.04c.17,0,.32.04.45.15.16.11.27.28.28.53.01.05.01.11.01.17,0,.05-.01.12-.01.17-.48,6.24-1.52,12.4-3.15,18.39Z"/>
    </g>
    <g>
      <g>
        <g>
          <path class="st12" d="M33.24,72.45c.7-.32,1.41-.62,2.11-.92-13.41-10.48-21.08-27.53-20.85-44.47.07-4.88.82-9.71,2.23-14.38.39-1.28-1.61-1.82-1.99-.55-5.24,17.32-1.27,36.88,9.66,51.2,2.59,3.39,5.56,6.42,8.84,9.11Z"/>
          <path class="st12" d="M16.64,13.38c22.38,2.42,42,17.8,49.94,39.21,1.51,4.08,2.59,8.31,3.22,12.61.65.01,1.3.04,1.95.07-1.39-9.68-4.96-19.02-10.45-27.08-6.54-9.6-15.71-17.2-26.26-21.84-5.87-2.58-12.05-4.24-18.41-4.92-1.23-.13-1.22,1.82,0,1.95Z"/>
        </g>
        <path class="st12" d="M33.69,72.24c10.88-4.9,22.86-7.06,35.11-7.06.54,0,1.08.01,1.61.03-.37-3.92-.63-6.51-1.63-12.13-8.41-15.8-4.74-9.46-8.83-16.65-5.04-6.79-9.37-8.42-22.85-18.18-16.92-5.49-9.83-4.92-21.28-6.48-2.73,9.54-3.97,14.63-.07,36.03,4.98,13.88,12.78,18.54,17.93,24.44Z"/>
      </g>
      <g>
        <g>
          <path class="st8" d="M33.14,72.5c.54-.25,1.08-.48,1.62-.72-.03-.24-.15-.48-.38-.65-12.23-9.61-19.24-25.63-19.03-41.52.06-4.5.72-8.95,1.97-13.25.34-1.18-1.42-1.68-1.76-.51-4.62,15.97-1.12,33.99,8.52,47.19,2.61,3.57,5.64,6.73,9.05,9.46Z"/>
          <path class="st8" d="M34.83,71.22c-.43.1-.6.43-.6.78,1.05-.46,2.1-.9,3.16-1.31-.86.17-1.71.33-2.56.53Z"/>
          <path class="st8" d="M17.24,16.99c19.75,2.23,37.06,16.41,44.06,36.14,1.4,3.93,2.38,8.01,2.92,12.16.57-.03,1.13-.05,1.7-.06-1.19-9.07-4.36-17.83-9.28-25.37-5.77-8.85-13.87-15.86-23.17-20.13-5.18-2.38-10.63-3.9-16.24-4.54-1.08-.12-1.08,1.68,0,1.8Z"/>
        </g>
        <path class="st8" d="M33.23,72.45c9.8-4.49,20.5-6.75,31.5-7.19-.36-3.9-.56-6.27-1.48-11.69-7.42-14.57-4.18-8.72-7.79-15.35-4.45-6.26-8.27-7.76-20.16-16.76-14.93-5.06-8.67-4.54-18.77-5.97-2.41,8.79-3.5,13.49-.06,33.21,4.71,13.72,12.29,17.67,16.77,23.74Z"/>
      </g>
    </g>
    <g>
      <g>
        <path class="st12" d="M196.4,61.71c-21.81,3.19-43.38,8.16-64.49,14.88-6.03,1.92-12.02,3.99-17.97,6.19-.35.13-.54.4-.62.71.81.69,1.61,1.39,2.39,2.1-.25-.31-.5-.62-.75-.94,20.66-7.62,41.85-13.57,63.33-17.73,6.19-1.2,12.4-2.25,18.63-3.16,1.25-.18.72-2.24-.52-2.06Z"/>
        <path class="st12" d="M153.5,85.79c8.67,0,16.98,2.46,24.58,6.43,11.29-5.04,19.73-17.05,19.97-29.19.02-1.21-1.89-1.21-1.92,0-.23,11.74-8.07,22.9-19.25,27.22-.43.17-.62.53-.64.89-12.48-7.82-28.69-9.24-42.54-4.25-3.12,1.13-6.1,2.58-8.9,4.33,8.96-3.75,18.72-5.43,28.7-5.43Z"/>
        <path class="st12" d="M176.35,65.83c-7.87,2.45-18.1,5.52-33.11,8.37-12.76,3.06-16.01,6.04-27.41,9.31-.64.33-1.13.6-1.52.84,1.89,1.66,3.72,3.37,5.46,5.14.9.92,1.76,1.86,2.59,2.83,2.37-1.11,4.8-2.08,7.29-2.89,7.14-3.43,13.11-6.25,23.1-4.84,12.36,1.74,14.79,1.44,21.81,5.93.96.43,1.92.88,2.86,1.36,10.91-7.06,11.96-8.49,14.76-13.3,1.68-5.03,3.41-4.36,4.75-14.79-3.75-4.46-13.84,4.37-20.57,2.06Z"/>
      </g>
      <g>
        <path class="st8" d="M192.44,64.27c-20.77,2.79-41.33,7.15-61.44,13.04-5.74,1.68-11.45,3.5-17.12,5.43-.38.13-.56.41-.61.72,1.21,1.02,2.38,2.08,3.53,3.15-.65-.74-1.3-1.49-1.94-2.23,19.68-6.68,39.86-11.89,60.33-15.54,5.89-1.05,11.81-1.97,17.75-2.77,1.19-.16.68-1.96-.5-1.8Z"/>
        <path class="st8" d="M175.34,90.87c10.59-4.49,18.46-14.91,18.68-25.44.02-1.06-1.8-1.06-1.82,0-.22,10.28-7.69,20.06-18.34,23.85-.37.13-.55.4-.59.69.69.29,1.38.59,2.07.9Z"/>
        <path class="st8" d="M132.72,86.33c-3.79,1.26-7.37,2.96-10.63,5.11-.1.07-.2.16-.29.25.18.21.37.41.55.62,2.44-1.15,4.95-2.14,7.51-2.97,7.7-3.05,16.52-4.34,24.8-3.52,6.15.15,12.12,1.52,17.76,3.78-11.77-6.44-26.81-7.55-39.7-3.28Z"/>
        <path class="st8" d="M173.34,67.88c-7.5,2.14-17.24,4.84-31.54,7.33-12.15,2.68-15.25,5.3-26.11,8.16-.68.33-1.2.59-1.58.81,1.96,1.71,3.85,3.48,5.65,5.31.66.67,1.28,1.36,1.89,2.05,10.69-3.99,16.57-8.87,29.2-7.23,11.2,1.45,13.85,1.29,19.83,4.65,1.33.48,2.64,1,3.94,1.58,10.15-6.05,11.15-7.32,13.79-11.49,1.6-4.4,3.25-3.82,4.53-12.96-3.57-3.91-13.19,3.83-19.6,1.81Z"/>
      </g>
    </g>
  </g>
  <g>
    <path class="st0" d="M84.88,146.37c0-19.97,9.8-37.69,24.96-48.86-11.37-12.41-27.91-20.23-46.33-20.23-34.28,0-62.07,27.05-62.07,60.42s27.79,60.42,62.07,60.42c13.73,0,26.41-4.35,36.69-11.69-9.53-10.73-15.32-24.73-15.32-40.05Z"/>
    <g>
      <ellipse class="st6" cx="145.55" cy="146.37" rx="53.01" ry="51.74"/>
      <ellipse class="st5" cx="141.7" cy="143.82" rx="47.56" ry="46.4"/>
      <ellipse class="st11" cx="165.35" cy="134.67" rx="20.79" ry="30.67" transform="translate(-45.18 100.72) rotate(-30)"/>
      <path class="st4" d="M176.22,132.98c0,4.13,6.8,9.87,4.31,12.58s-5.84-3.96-9.64-3.96-7.33,6.67-9.82,3.96,2.01-5.98,2.01-10.11-9.88-8.78-7.39-11.49,10.43,2.05,14.23,2.05,8.12-4.31,10.61-1.6c2.49,2.71-4.31,4.45-4.31,8.58Z"/>
      <path class="st7" d="M84.66,146.25c0-17.97,7.94-34.13,20.59-45.33-10.44-14.33-27.33-23.65-46.41-23.65-31.7,0-57.39,25.7-57.39,57.39s25.7,57.39,57.39,57.39c13.58,0,26.05-4.73,35.87-12.61-6.35-9.56-10.05-20.96-10.05-33.2Z"/>
      <path class="st2" d="M68.66,91.22c8.66,10.82,2.55,30.11-13.64,43.07-16.2,12.96-36.35,14.7-45.01,3.87-8.66-10.82-.74-29.99,13.64-43.07,15.35-13.96,36.35-14.7,45.01-3.87Z"/>
      <path class="st3" d="M55.07,110.36c3.49,12.03,1.68,13.18-1.85,12.5s-8.79-3.18-12.2,1.55c-7.21,10.02-8.09,9.65-9.04,6.48s-1.97-9.14-9.45-10.34c-3.83-.61.88-3.08,5.27-9.38,3.69-10.68,8.44-16.43,11.11-12.32,2.12,3.25,14.8-3.68,18.04-2.54s-2.96,10.32-1.88,14.05Z"/>
    </g>
  </g>
</svg>